#define barunit_width 19#define barunit_height 19#define barunit_x_hot 0#define barunit_y_hot 0static char barunit_bits[] = {   0xff, 0xff, 0x07, 0x01, 0x00, 0x04, 0xfd, 0xff, 0x05, 0xfd, 0xff, 0x05,   0x05, 0x00, 0x05, 0x05, 0x38, 0x05, 0x05, 0x38, 0x05, 0x05, 0x38, 0x05,   0x3d, 0x38, 0x05, 0x05, 0x00, 0x05, 0xfd, 0x01, 0x05, 0x05, 0x00, 0x05,   0x7d, 0x00, 0x05, 0x05, 0x00, 0x05, 0x05, 0x00, 0x05, 0xfd, 0xff, 0x05,   0xfd, 0xff, 0x05, 0x01, 0x00, 0x04, 0xff, 0xff, 0x07};