#define boxunit_width 19
#define boxunit_height 19
#define boxunit_x_hot 0
#define boxunit_y_hot 0
static char boxunit_bits[] = {
   0xff, 0xff, 0x07, 0x01, 0x00, 0x04, 0xfd, 0xff, 0x05, 0x45, 0x10, 0x05,
   0x45, 0x10, 0x05, 0x45, 0x10, 0x05, 0xfd, 0xff, 0x05, 0x45, 0x10, 0x05,
   0x45, 0x10, 0x05, 0x45, 0x10, 0x05, 0x45, 0x10, 0x05, 0x45, 0x10, 0x05,
   0xfd, 0xff, 0x05, 0x45, 0x10, 0x05, 0x45, 0x10, 0x05, 0x45, 0x10, 0x05,
   0xfd, 0xff, 0x05, 0x01, 0x00, 0x04, 0xff, 0xff, 0x07};
