#define filler_width 19#define filler_height 19#define filler_x_hot 0#define filler_y_hot 0static char filler_bits[] = {   0xff, 0xff, 0x07, 0x01, 0x00, 0x04, 0x3d, 0x80, 0x05, 0x7d, 0xc0, 0x05,   0x79, 0xc0, 0x04, 0xf1, 0x60, 0x04, 0xf1, 0x71, 0x04, 0xe1, 0x31, 0x04,   0xe1, 0x19, 0x04, 0xc1, 0x1d, 0x04, 0xc1, 0x3c, 0x04, 0x61, 0x3c, 0x04,   0x71, 0x7c, 0x04, 0x31, 0x78, 0x04, 0x19, 0xf0, 0x04, 0x1d, 0xf0, 0x05,   0x0d, 0xe0, 0x05, 0x01, 0x00, 0x04, 0xff, 0xff, 0x07};