#define funit_width 19#define funit_height 19#define funit_x_hot 0#define funit_y_hot 0static char funit_bits[] = {   0xff, 0xff, 0x07, 0x01, 0x00, 0x04, 0xfd, 0xff, 0x05, 0xfd, 0xff, 0x05,   0xfd, 0xff, 0x05, 0xfd, 0xf1, 0x05, 0xfd, 0xe7, 0x05, 0x7d, 0x08, 0x05,   0x3d, 0xf0, 0x05, 0xfd, 0x03, 0x05, 0x0d, 0x04, 0x05, 0x05, 0xf8, 0x05,   0x05, 0x00, 0x05, 0x05, 0x00, 0x05, 0x85, 0x10, 0x05, 0x85, 0x10, 0x05,   0xfd, 0xff, 0x05, 0x01, 0x00, 0x04, 0xff, 0xff, 0x07};