#define here_width 18
#define here_height 18
#define here_x_hot 0
#define here_y_hot 0
static char here_bits[] = {
   0x00, 0x00, 0x00, 0x00, 0x00, 0x00, 0x00, 0x00, 0x00, 0xe0, 0xff, 0x01,
   0x10, 0x00, 0x02, 0x88, 0xe1, 0x01, 0x04, 0x12, 0x00, 0x72, 0x3c, 0x00,
   0x81, 0x24, 0x00, 0xc1, 0x3f, 0x00, 0x41, 0x10, 0x00, 0xc2, 0x1f, 0x00,
   0x84, 0x10, 0x00, 0x88, 0x0f, 0x00, 0x70, 0x00, 0x00, 0x10, 0x00, 0x00,
   0x08, 0x00, 0x00, 0x07, 0x00, 0x00};
