#define levelbtn_width 300#define levelbtn_height 120#define levelbtn_x_hot 0#define levelbtn_y_hot 0static char levelbtn_bits[] = {   0xff, 0xff, 0xff, 0xff, 0xff, 0xff, 0xff, 0xff, 0xff, 0xff, 0xff, 0xff,   0xff, 0xff, 0xff, 0xff, 0xff, 0xff, 0xff, 0xff, 0xff, 0xff, 0xff, 0xff,   0xff, 0xff, 0xff, 0xff, 0xff, 0xff, 0xff, 0xff, 0xff, 0xff, 0xff, 0xff,   0xff, 0x0f, 0x01, 0x00, 0x00, 0x60, 0x00, 0x00, 0x00, 0x18, 0x00, 0x00,   0x00, 0x06, 0x00, 0x00, 0x80, 0x01, 0x00, 0x00, 0x60, 0x00, 0x00, 0x00,   0x18, 0x00, 0x00, 0x00, 0x06, 0x00, 0x00, 0x80, 0x01, 0x00, 0x00, 0x60,   0x00, 0x00, 0x00, 0x08, 0x51, 0x55, 0x55, 0x7d, 0x54, 0x55, 0x55, 0x1f,   0x55, 0x55, 0xd5, 0x47, 0x55, 0x55, 0xf5, 0x51, 0x55, 0x55, 0x7d, 0x54,   0x55, 0x55, 0x1f, 0x55, 0x55, 0xd5, 0x47, 0x55, 0x55, 0xf5, 0x51, 0x55,   0x55, 0x7d, 0x54, 0x55, 0x55, 0x0f, 0xad, 0xaa, 0xaa, 0x72, 0xab, 0xaa,   0xaa, 0xdc, 0xaa, 0xaa, 0x2a, 0xb7, 0xaa, 0xaa, 0xca, 0xad, 0xaa, 0xaa,   0x72, 0xab, 0xaa, 0xaa, 0xdc, 0xaa, 0xaa, 0x2a, 0xb7, 0xaa, 0xaa, 0xca,   0xad, 0xaa, 0xaa, 0x72, 0xab, 0xaa, 0xaa, 0x0c, 0x51, 0x55, 0x55, 0x7d,   0x54, 0x55, 0x55, 0x1f, 0x55, 0x55, 0xd5, 0x47, 0x55, 0x55, 0xf5, 0x51,   0x55, 0x55, 0x7d, 0x54, 0x55, 0x55, 0x1f, 0x55, 0x55, 0xd5, 0x47, 0x55,   0x55, 0xf5, 0x51, 0x55, 0x55, 0x7d, 0x54, 0x55, 0x55, 0x0f, 0xad, 0xaa,   0xaa, 0x72, 0xab, 0xaa, 0xaa, 0xdc, 0xaa, 0xaa, 0x2a, 0xb7, 0xaa, 0xaa,   0xca, 0xad, 0xaa, 0xaa, 0x72, 0xab, 0xaa, 0xaa, 0xdc, 0xaa, 0xaa, 0x2a,   0xb7, 0xaa, 0xaa, 0xca, 0xad, 0xaa, 0xaa, 0x72, 0xab, 0xaa, 0xaa, 0x0c,   0x51, 0xfd, 0x57, 0x7d, 0x54, 0xf5, 0x55, 0x1f, 0x55, 0x5f, 0xd5, 0x47,   0xd5, 0x57, 0xf5, 0x51, 0x55, 0x57, 0x7d, 0x54, 0xff, 0x57, 0x1f, 0x55,   0x7f, 0xd5, 0x47, 0xfd, 0x7f, 0xf5, 0x51, 0xf5, 0x55, 0x7d, 0x54, 0xfd,   0x55, 0x0f, 0xad, 0xfe, 0xaf, 0x72, 0xab, 0xea, 0xaa, 0xdc, 0xea, 0xff,   0x2a, 0xb7, 0xfa, 0xbf, 0xca, 0xad, 0xaa, 0xaf, 0x72, 0xab, 0xff, 0xab,   0xdc, 0xaa, 0xff, 0x2a, 0xb7, 0xfa, 0xff, 0xca, 0xad, 0xfa, 0xaf, 0x72,   0xab, 0xff, 0xab, 0x0c, 0x51, 0x5f, 0x5f, 0x7d, 0x54, 0xf5, 0x55, 0x1f,   0xd5, 0xf5, 0xd5, 0x47, 0x75, 0x5d, 0xf5, 0x51, 0xd5, 0x57, 0x7d, 0x54,   0x57, 0x55, 0x1f, 0xd5, 0xf7, 0xd5, 0x47, 0xfd, 0x7f, 0xf5, 0x51, 0x7d,   0x57, 0x7d, 0x54, 0xdf, 0x57, 0x0f, 0xad, 0xae, 0xae, 0x72, 0xab, 0xfe,   0xaa, 0xdc, 0xea, 0xea, 0x2a, 0xb7, 0xba, 0xba, 0xca, 0xad, 0xea, 0xaf,   0x72, 0xab, 0xaf, 0xaa, 0xdc, 0xea, 0xeb, 0x2b, 0xb7, 0xaa, 0xfa, 0xca,   0xad, 0xbe, 0xae, 0x72, 0xab, 0xaf, 0xab, 0x0c, 0x51, 0x5f, 0x5f, 0x7d,   0x54, 0xff, 0x55, 0x1f, 0xf5, 0xd5, 0xd5, 0x47, 0x7d, 0x7d, 0xf5, 0x51,   0xd5, 0x57, 0x7d, 0x54, 0x57, 0x55, 0x1f, 0xf5, 0xd5, 0xd5, 0x47, 0x55,   0x7d, 0xf5, 0x51, 0x5d, 0x5f, 0x7d, 0xd4, 0x57, 0x57, 0x0f, 0xad, 0xaf,   0xbe, 0x72, 0xab, 0xea, 0xaa, 0xdc, 0xea, 0xea, 0x2b, 0xb7, 0xba, 0xba,   0xca, 0xad, 0xea, 0xaf, 0x72, 0xab, 0xaf, 0xaa, 0xdc, 0xea, 0xaa, 0x2a,   0xb7, 0xaa, 0xbe, 0xca, 0xad, 0xbe, 0xae, 0x72, 0xab, 0xab, 0xaf, 0x0c,   0x51, 0x57, 0x5d, 0x7d, 0x54, 0xf5, 0x55, 0x1f, 0x55, 0xd5, 0xd5, 0x47,   0x55, 0x7d, 0xf5, 0x51, 0x75, 0x57, 0x7d, 0x54, 0x57, 0x55, 0x1f, 0xf5,   0x55, 0xd5, 0x47, 0x55, 0x5d, 0xf5, 0x51, 0x5d, 0x5f, 0x7d, 0xd4, 0x57,   0x57, 0x0f, 0xad, 0xaf, 0xbe, 0x72, 0xab, 0xea, 0xaa, 0xdc, 0xaa, 0xea,   0x2a, 0xb7, 0xaa, 0xbe, 0xca, 0xad, 0xba, 0xaf, 0x72, 0xab, 0xff, 0xaa,   0xdc, 0xea, 0xaa, 0x2a, 0xb7, 0xaa, 0xae, 0xca, 0xad, 0xba, 0xaf, 0x72,   0xab, 0xab, 0xaf, 0x0c, 0x51, 0x57, 0x5d, 0x7d, 0x54, 0xf5, 0x55, 0x1f,   0x55, 0xf5, 0xd5, 0x47, 0xd5, 0x5f, 0xf5, 0x51, 0x5d, 0x57, 0x7d, 0x54,   0xff, 0x55, 0x1f, 0xf5, 0x5f, 0xd5, 0x47, 0x55, 0x5f, 0xf5, 0x51, 0xf5,   0x57, 0x7d, 0xd4, 0x57, 0x57, 0x0f, 0xad, 0xaf, 0xbe, 0x72, 0xab, 0xea,   0xaa, 0xdc, 0xaa, 0xfa, 0x2a, 0xb7, 0xaa, 0xaf, 0xca, 0xad, 0xbe, 0xaf,   0x72, 0xab, 0xef, 0xab, 0xdc, 0xea, 0xff, 0x2a, 0xb7, 0xaa, 0xaf, 0xca,   0xad, 0xfa, 0xaf, 0x72, 0xab, 0xaf, 0xaf, 0x0c, 0x51, 0x57, 0x5d, 0x7d,   0x54, 0xf5, 0x55, 0x1f, 0x55, 0x7d, 0xd5, 0x47, 0xd5, 0x7f, 0xf5, 0x51,   0x5d, 0x57, 0x7d, 0x54, 0xd5, 0x57, 0x1f, 0xf5, 0xf7, 0xd5, 0x47, 0x55,   0x57, 0xf5, 0x51, 0x5d, 0x5f, 0x7d, 0x54, 0xdf, 0x57, 0x0f, 0xad, 0xaf,   0xbe, 0x72, 0xab, 0xea, 0xaa, 0xdc, 0xaa, 0xbe, 0x2a, 0xb7, 0xaa, 0xba,   0xca, 0xad, 0xae, 0xaf, 0x72, 0xab, 0xaa, 0xaf, 0xdc, 0xea, 0xeb, 0x2a,   0xb7, 0xaa, 0xab, 0xca, 0xad, 0xae, 0xbe, 0x72, 0xab, 0xff, 0xaf, 0x0c,   0x51, 0x57, 0x5d, 0x7d, 0x54, 0xf5, 0x55, 0x1f, 0x55, 0x5f, 0xd5, 0x47,   0x55, 0x75, 0xf5, 0x51, 0xff, 0x5f, 0x7d, 0x54, 0x55, 0x57, 0x1f, 0xf5,   0xd5, 0xd5, 0x47, 0xd5, 0x57, 0xf5, 0x51, 0x5f, 0x5d, 0x7d, 0x54, 0x7d,   0x57, 0x0f, 0xad, 0xaf, 0xbe, 0x72, 0xab, 0xea, 0xaa, 0xdc, 0xaa, 0xaf,   0x2a, 0xb7, 0xaa, 0xfa, 0xca, 0xad, 0xfe, 0xbf, 0x72, 0xab, 0xaa, 0xaf,   0xdc, 0xea, 0xea, 0x2b, 0xb7, 0xea, 0xab, 0xca, 0xad, 0xae, 0xbe, 0x72,   0xab, 0xaa, 0xaf, 0x0c, 0x51, 0x5f, 0x5f, 0x7d, 0x54, 0xf5, 0x55, 0x1f,   0xd5, 0x57, 0xd5, 0x47, 0x7d, 0x75, 0xf5, 0x51, 0x55, 0x57, 0x7d, 0xd4,   0x57, 0x57, 0x1f, 0xf5, 0xd5, 0xd5, 0x47, 0xd5, 0x55, 0xf5, 0x51, 0x5f,   0x5d, 0x7d, 0x54, 0x55, 0x57, 0x0f, 0xad, 0xae, 0xae, 0x72, 0xab, 0xea,   0xaa, 0xdc, 0xea, 0xab, 0x2a, 0xb7, 0xba, 0xfa, 0xca, 0xad, 0xaa, 0xaf,   0x72, 0xab, 0xab, 0xaf, 0xdc, 0xea, 0xeb, 0x2a, 0xb7, 0xea, 0xab, 0xca,   0xad, 0xae, 0xbe, 0x72, 0xab, 0xab, 0xab, 0x0c, 0x51, 0x5f, 0x5f, 0x7d,   0x54, 0xf5, 0x55, 0x1f, 0xf5, 0x55, 0xd5, 0x47, 0x75, 0x7d, 0xf5, 0x51,   0x55, 0x57, 0x7d, 0xd4, 0xd7, 0x57, 0x1f, 0xd5, 0xf7, 0xd5, 0x47, 0xf5,   0x55, 0xf5, 0x51, 0x5d, 0x5f, 0x7d, 0xd4, 0xf7, 0x57, 0x0f, 0xad, 0xfe,   0xaf, 0x72, 0xab, 0xea, 0xaa, 0xdc, 0xea, 0xff, 0x2b, 0xb7, 0xfa, 0xbf,   0xca, 0xad, 0xaa, 0xaf, 0x72, 0xab, 0xff, 0xab, 0xdc, 0xaa, 0xff, 0x2a,   0xb7, 0xea, 0xaa, 0xca, 0xad, 0xfe, 0xaf, 0x72, 0xab, 0xff, 0xab, 0x0c,   0x51, 0xfd, 0x57, 0x7d, 0x54, 0xf5, 0x55, 0x1f, 0xf5, 0xff, 0xd5, 0x47,   0xd5, 0x5f, 0xf5, 0x51, 0x55, 0x57, 0x7d, 0x54, 0xfd, 0x55, 0x1f, 0x55,   0x7f, 0xd5, 0x47, 0xf5, 0x55, 0xf5, 0x51, 0xf5, 0x57, 0x7d, 0x54, 0x7d,   0x55, 0x0f, 0xad, 0xaa, 0xaa, 0x72, 0xab, 0xaa, 0xaa, 0xdc, 0xaa, 0xaa,   0x2a, 0xb7, 0xaa, 0xaa, 0xca, 0xad, 0xaa, 0xaa, 0x72, 0xab, 0xaa, 0xaa,   0xdc, 0xaa, 0xaa, 0x2a, 0xb7, 0xaa, 0xaa, 0xca, 0xad, 0xaa, 0xaa, 0x72,   0xab, 0xaa, 0xaa, 0x0c, 0x51, 0x55, 0x55, 0x7d, 0x54, 0x55, 0x55, 0x1f,   0x55, 0x55, 0xd5, 0x47, 0x55, 0x55, 0xf5, 0x51, 0x55, 0x55, 0x7d, 0x54,   0x55, 0x55, 0x1f, 0x55, 0x55, 0xd5, 0x47, 0x55, 0x55, 0xf5, 0x51, 0x55,   0x55, 0x7d, 0x54, 0x55, 0x55, 0x0f, 0xad, 0xaa, 0xaa, 0x7a, 0xab, 0xaa,   0xaa, 0xde, 0xaa, 0xaa, 0xaa, 0xb7, 0xaa, 0xaa, 0xea, 0xad, 0xaa, 0xaa,   0x7a, 0xab, 0xaa, 0xaa, 0xde, 0xaa, 0xaa, 0xaa, 0xb7, 0xaa, 0xaa, 0xea,   0xad, 0xaa, 0xaa, 0x7a, 0xab, 0xaa, 0xaa, 0x0e, 0xff, 0xff, 0xff, 0xff,   0xff, 0xff, 0xff, 0xff, 0xff, 0xff, 0xff, 0xff, 0xff, 0xff, 0xff, 0xff,   0xff, 0xff, 0xff, 0xff, 0xff, 0xff, 0xff, 0xff, 0xff, 0xff, 0xff, 0xff,   0xff, 0xff, 0xff, 0xff, 0xff, 0xff, 0xff, 0xff, 0xff, 0x0f, 0xff, 0xff,   0xff, 0xff, 0xff, 0xff, 0xff, 0xff, 0xff, 0xff, 0xff, 0xff, 0xff, 0xff,   0xff, 0xff, 0xff, 0xff, 0xff, 0xff, 0xff, 0xff, 0xff, 0xff, 0xff, 0xff,   0xff, 0xff, 0xff, 0xff, 0xff, 0xff, 0xff, 0xff, 0xff, 0xff, 0xff, 0x0f,   0xff, 0xff, 0xff, 0xff, 0xff, 0xff, 0xff, 0xff, 0xff, 0xff, 0xff, 0xff,   0xff, 0xff, 0xff, 0xff, 0xff, 0xff, 0xff, 0xff, 0xff, 0xff, 0xff, 0xff,   0xff, 0xff, 0xff, 0xff, 0xff, 0xff, 0xff, 0xff, 0xff, 0xff, 0xff, 0xff,   0xff, 0x0f, 0xff, 0xff, 0xff, 0xff, 0xff, 0xff, 0xff, 0xff, 0xff, 0xff,   0xff, 0xff, 0xff, 0xff, 0xff, 0xff, 0xff, 0xff, 0xff, 0xff, 0xff, 0xff,   0xff, 0xff, 0xff, 0xff, 0xff, 0xff, 0xff, 0xff, 0xff, 0xff, 0xff, 0xff,   0xff, 0xff, 0xff, 0x0f, 0xaf, 0xaa, 0xaa, 0xea, 0xab, 0xaa, 0xaa, 0xfa,   0xaa, 0xaa, 0xaa, 0xbe, 0xaa, 0xaa, 0xaa, 0xaf, 0xaa, 0xaa, 0xea, 0xab,   0xaa, 0xaa, 0xfa, 0xaa, 0xaa, 0xaa, 0xbe, 0xaa, 0xaa, 0xaa, 0xaf, 0xaa,   0xaa, 0xea, 0xab, 0xaa, 0xaa, 0x0a, 0x53, 0x55, 0x55, 0xed, 0x54, 0x55,   0x55, 0x3b, 0x55, 0x55, 0xd5, 0x4e, 0x55, 0x55, 0xb5, 0x53, 0x55, 0x55,   0xed, 0x54, 0x55, 0x55, 0x3b, 0x55, 0x55, 0xd5, 0x4e, 0x55, 0x55, 0xb5,   0x53, 0x55, 0x55, 0xed, 0x54, 0x55, 0x55, 0x0b, 0xaf, 0xaa, 0xaa, 0xe2,   0xab, 0xaa, 0xaa, 0xf8, 0xaa, 0xaa, 0x2a, 0xbe, 0xaa, 0xaa, 0x8a, 0xaf,   0xaa, 0xaa, 0xe2, 0xab, 0xaa, 0xaa, 0xf8, 0xaa, 0xaa, 0x2a, 0xbe, 0xaa,   0xaa, 0x8a, 0xaf, 0xaa, 0xaa, 0xe2, 0xab, 0xaa, 0xaa, 0x08, 0x53, 0x55,   0x55, 0xed, 0x54, 0x55, 0x55, 0x3b, 0x55, 0x55, 0xd5, 0x4e, 0x55, 0x55,   0xb5, 0x53, 0x55, 0x55, 0xed, 0x54, 0x55, 0x55, 0x3b, 0x55, 0x55, 0xd5,   0x4e, 0x55, 0x55, 0xb5, 0x53, 0x55, 0x55, 0xed, 0x54, 0x55, 0x55, 0x0b,   0xaf, 0x02, 0xa8, 0xe2, 0xab, 0x0a, 0xaa, 0xf8, 0xaa, 0xa0, 0x2a, 0xbe,   0x2a, 0xa8, 0x8a, 0xaf, 0xaa, 0xa8, 0xe2, 0xab, 0x00, 0xa8, 0xf8, 0xaa,   0x80, 0x2a, 0xbe, 0x02, 0x80, 0x8a, 0xaf, 0x0a, 0xaa, 0xe2, 0xab, 0x02,   0xaa, 0x08, 0x53, 0x01, 0x50, 0xed, 0x54, 0x15, 0x55, 0x3b, 0x15, 0x00,   0xd5, 0x4e, 0x05, 0x40, 0xb5, 0x53, 0x55, 0x50, 0xed, 0x54, 0x00, 0x54,   0x3b, 0x55, 0x00, 0xd5, 0x4e, 0x05, 0x00, 0xb5, 0x53, 0x05, 0x50, 0xed,   0x54, 0x00, 0x54, 0x0b, 0xaf, 0xa0, 0xa0, 0xe2, 0xab, 0x0a, 0xaa, 0xf8,   0x2a, 0x0a, 0x2a, 0xbe, 0x8a, 0xa2, 0x8a, 0xaf, 0x2a, 0xa8, 0xe2, 0xab,   0xa8, 0xaa, 0xf8, 0x2a, 0x08, 0x2a, 0xbe, 0x02, 0x80, 0x8a, 0xaf, 0x82,   0xa8, 0xe2, 0xab, 0x20, 0xa8, 0x08, 0x53, 0x51, 0x51, 0xed, 0x54, 0x01,   0x55, 0x3b, 0x15, 0x15, 0xd5, 0x4e, 0x45, 0x45, 0xb5, 0x53, 0x15, 0x50,   0xed, 0x54, 0x50, 0x55, 0x3b, 0x15, 0x14, 0xd4, 0x4e, 0x55, 0x05, 0xb5,   0x53, 0x41, 0x51, 0xed, 0x54, 0x50, 0x54, 0x0b, 0xaf, 0xa0, 0xa0, 0xe2,   0xab, 0x00, 0xaa, 0xf8, 0x0a, 0x2a, 0x2a, 0xbe, 0x82, 0x82, 0x8a, 0xaf,   0x2a, 0xa8, 0xe2, 0xab, 0xa8, 0xaa, 0xf8, 0x0a, 0x2a, 0x2a, 0xbe, 0xaa,   0x82, 0x8a, 0xaf, 0xa2, 0xa0, 0xe2, 0x2b, 0xa8, 0xa8, 0x08, 0x53, 0x50,   0x41, 0xed, 0x54, 0x15, 0x55, 0x3b, 0x15, 0x15, 0xd4, 0x4e, 0x45, 0x45,   0xb5, 0x53, 0x15, 0x50, 0xed, 0x54, 0x50, 0x55, 0x3b, 0x15, 0x55, 0xd5,   0x4e, 0x55, 0x41, 0xb5, 0x53, 0x41, 0x51, 0xed, 0x54, 0x54, 0x50, 0x0b,   0xaf, 0xa8, 0xa2, 0xe2, 0xab, 0x0a, 0xaa, 0xf8, 0xaa, 0x2a, 0x2a, 0xbe,   0xaa, 0x82, 0x8a, 0xaf, 0x8a, 0xa8, 0xe2, 0xab, 0xa8, 0xaa, 0xf8, 0x0a,   0xaa, 0x2a, 0xbe, 0xaa, 0xa2, 0x8a, 0xaf, 0xa2, 0xa0, 0xe2, 0x2b, 0xa8,   0xa8, 0x08, 0x53, 0x50, 0x41, 0xed, 0x54, 0x15, 0x55, 0x3b, 0x55, 0x15,   0xd5, 0x4e, 0x55, 0x41, 0xb5, 0x53, 0x45, 0x50, 0xed, 0x54, 0x00, 0x55,   0x3b, 0x15, 0x55, 0xd5, 0x4e, 0x55, 0x51, 0xb5, 0x53, 0x45, 0x50, 0xed,   0x54, 0x54, 0x50, 0x0b, 0xaf, 0xa8, 0xa2, 0xe2, 0xab, 0x0a, 0xaa, 0xf8,   0xaa, 0x0a, 0x2a, 0xbe, 0x2a, 0xa0, 0x8a, 0xaf, 0xa2, 0xa8, 0xe2, 0xab,   0x00, 0xaa, 0xf8, 0x0a, 0xa0, 0x2a, 0xbe, 0xaa, 0xa0, 0x8a, 0xaf, 0x0a,   0xa8, 0xe2, 0x2b, 0xa8, 0xa8, 0x08, 0x53, 0x50, 0x41, 0xed, 0x54, 0x15,   0x55, 0x3b, 0x55, 0x05, 0xd5, 0x4e, 0x55, 0x50, 0xb5, 0x53, 0x41, 0x50,   0xed, 0x54, 0x10, 0x54, 0x3b, 0x15, 0x00, 0xd5, 0x4e, 0x55, 0x50, 0xb5,   0x53, 0x05, 0x50, 0xed, 0x54, 0x50, 0x50, 0x0b, 0xaf, 0xa8, 0xa2, 0xe2,   0xab, 0x0a, 0xaa, 0xf8, 0xaa, 0x82, 0x2a, 0xbe, 0x2a, 0x80, 0x8a, 0xaf,   0xa2, 0xa8, 0xe2, 0xab, 0x2a, 0xa8, 0xf8, 0x0a, 0x08, 0x2a, 0xbe, 0xaa,   0xa8, 0x8a, 0xaf, 0xa2, 0xa0, 0xe2, 0xab, 0x20, 0xa8, 0x08, 0x53, 0x50,   0x41, 0xed, 0x54, 0x15, 0x55, 0x3b, 0x55, 0x41, 0xd5, 0x4e, 0x55, 0x45,   0xb5, 0x53, 0x51, 0x50, 0xed, 0x54, 0x55, 0x50, 0x3b, 0x15, 0x14, 0xd5,   0x4e, 0x55, 0x54, 0xb5, 0x53, 0x51, 0x41, 0xed, 0x54, 0x00, 0x50, 0x0b,   0xaf, 0xa8, 0xa2, 0xe2, 0xab, 0x0a, 0xaa, 0xf8, 0xaa, 0xa0, 0x2a, 0xbe,   0xaa, 0x8a, 0x8a, 0xaf, 0x00, 0xa0, 0xe2, 0xab, 0xaa, 0xa8, 0xf8, 0x0a,   0x2a, 0x2a, 0xbe, 0x2a, 0xa8, 0x8a, 0xaf, 0xa0, 0xa2, 0xe2, 0xab, 0x82,   0xa8, 0x08, 0x53, 0x50, 0x41, 0xed, 0x54, 0x15, 0x55, 0x3b, 0x55, 0x50,   0xd5, 0x4e, 0x55, 0x05, 0xb5, 0x53, 0x01, 0x40, 0xed, 0x54, 0x55, 0x50,   0x3b, 0x15, 0x15, 0xd4, 0x4e, 0x15, 0x54, 0xb5, 0x53, 0x51, 0x41, 0xed,   0x54, 0x55, 0x50, 0x0b, 0xaf, 0xa0, 0xa0, 0xe2, 0xab, 0x0a, 0xaa, 0xf8,   0x2a, 0xa8, 0x2a, 0xbe, 0x82, 0x8a, 0x8a, 0xaf, 0xaa, 0xa8, 0xe2, 0x2b,   0xa8, 0xa8, 0xf8, 0x0a, 0x2a, 0x2a, 0xbe, 0x2a, 0xaa, 0x8a, 0xaf, 0xa0,   0xa2, 0xe2, 0xab, 0xaa, 0xa8, 0x08, 0x53, 0x51, 0x51, 0xed, 0x54, 0x15,   0x55, 0x3b, 0x15, 0x54, 0xd5, 0x4e, 0x45, 0x05, 0xb5, 0x53, 0x55, 0x50,   0xed, 0x54, 0x54, 0x50, 0x3b, 0x15, 0x14, 0xd5, 0x4e, 0x15, 0x54, 0xb5,   0x53, 0x51, 0x41, 0xed, 0x54, 0x54, 0x54, 0x0b, 0xaf, 0xa0, 0xa0, 0xe2,   0xab, 0x0a, 0xaa, 0xf8, 0x0a, 0xaa, 0x2a, 0xbe, 0x8a, 0x82, 0x8a, 0xaf,   0xaa, 0xa8, 0xe2, 0x2b, 0x28, 0xa8, 0xf8, 0x2a, 0x08, 0x2a, 0xbe, 0x0a,   0xaa, 0x8a, 0xaf, 0xa2, 0xa0, 0xe2, 0x2b, 0x08, 0xa8, 0x08, 0x53, 0x01,   0x50, 0xed, 0x54, 0x15, 0x55, 0x3b, 0x15, 0x00, 0xd4, 0x4e, 0x05, 0x40,   0xb5, 0x53, 0x55, 0x50, 0xed, 0x54, 0x00, 0x54, 0x3b, 0x55, 0x00, 0xd5,   0x4e, 0x15, 0x55, 0xb5, 0x53, 0x01, 0x50, 0xed, 0x54, 0x00, 0x54, 0x0b,   0xaf, 0x02, 0xa8, 0xe2, 0xab, 0x0a, 0xaa, 0xf8, 0x0a, 0x00, 0x2a, 0xbe,   0x2a, 0xa0, 0x8a, 0xaf, 0xaa, 0xa8, 0xe2, 0xab, 0x02, 0xaa, 0xf8, 0xaa,   0x80, 0x2a, 0xbe, 0x0a, 0xaa, 0x8a, 0xaf, 0x0a, 0xa8, 0xe2, 0xab, 0x82,   0xaa, 0x08, 0x53, 0x55, 0x55, 0xed, 0x54, 0x55, 0x55, 0x3b, 0x55, 0x55,   0xd5, 0x4e, 0x55, 0x55, 0xb5, 0x53, 0x55, 0x55, 0xed, 0x54, 0x55, 0x55,   0x3b, 0x55, 0x55, 0xd5, 0x4e, 0x55, 0x55, 0xb5, 0x53, 0x55, 0x55, 0xed,   0x54, 0x55, 0x55, 0x0b, 0xaf, 0xaa, 0xaa, 0xe2, 0xab, 0xaa, 0xaa, 0xf8,   0xaa, 0xaa, 0x2a, 0xbe, 0xaa, 0xaa, 0x8a, 0xaf, 0xaa, 0xaa, 0xe2, 0xab,   0xaa, 0xaa, 0xf8, 0xaa, 0xaa, 0x2a, 0xbe, 0xaa, 0xaa, 0x8a, 0xaf, 0xaa,   0xaa, 0xe2, 0xab, 0xaa, 0xaa, 0x08, 0x53, 0x55, 0x55, 0xed, 0x54, 0x55,   0x55, 0x39, 0x55, 0x55, 0x55, 0x4e, 0x55, 0x55, 0x95, 0x53, 0x55, 0x55,   0xe5, 0x54, 0x55, 0x55, 0x39, 0x55, 0x55, 0x55, 0x4e, 0x55, 0x55, 0x95,   0x53, 0x55, 0x55, 0xe5, 0x54, 0x55, 0x55, 0x09, 0x01, 0x00, 0x00, 0x60,   0x00, 0x00, 0x00, 0x18, 0x00, 0x00, 0x00, 0x06, 0x00, 0x00, 0x80, 0x01,   0x00, 0x00, 0x60, 0x00, 0x00, 0x00, 0x18, 0x00, 0x00, 0x00, 0x06, 0x00,   0x00, 0x80, 0x01, 0x00, 0x00, 0x60, 0x00, 0x00, 0x00, 0x08, 0xff, 0xff,   0xff, 0xff, 0xff, 0xff, 0xff, 0xff, 0xff, 0xff, 0xff, 0xff, 0xff, 0xff,   0xff, 0xff, 0xff, 0xff, 0xff, 0xff, 0xff, 0xff, 0xff, 0xff, 0xff, 0xff,   0xff, 0xff, 0xff, 0xff, 0xff, 0xff, 0xff, 0xff, 0xff, 0xff, 0xff, 0x0f,   0xff, 0xff, 0xff, 0xff, 0xff, 0xff, 0xff, 0xff, 0xff, 0xff, 0xff, 0xff,   0xff, 0xff, 0xff, 0xff, 0xff, 0xff, 0xff, 0xff, 0xff, 0xff, 0x0f, 0x00,   0x00, 0x00, 0x00, 0x00, 0x00, 0x00, 0x00, 0x00, 0x00, 0x00, 0x00, 0x00,   0x00, 0x00, 0x01, 0x00, 0x00, 0x60, 0x00, 0x00, 0x00, 0x18, 0x00, 0x00,   0x00, 0x06, 0x00, 0x00, 0x80, 0x01, 0x00, 0x00, 0x60, 0x00, 0x00, 0x00,   0x08, 0x00, 0x00, 0x00, 0x00, 0x00, 0x00, 0x00, 0x00, 0x00, 0x00, 0x00,   0x00, 0x00, 0x00, 0x00, 0x51, 0x55, 0x55, 0x7d, 0x54, 0x55, 0x55, 0x1f,   0x55, 0x55, 0xd5, 0x47, 0x55, 0x55, 0xf5, 0x51, 0x55, 0x55, 0x7d, 0x54,   0x55, 0x55, 0x0f, 0x00, 0x00, 0x00, 0x00, 0x00, 0x00, 0x00, 0x00, 0x00,   0x00, 0x00, 0x00, 0x00, 0x00, 0x00, 0xad, 0xaa, 0xaa, 0x72, 0xab, 0xaa,   0xaa, 0xdc, 0xaa, 0xaa, 0x2a, 0xb7, 0xaa, 0xaa, 0xca, 0xad, 0xaa, 0xaa,   0x72, 0xab, 0xaa, 0xaa, 0x0c, 0x00, 0x00, 0x00, 0x00, 0x00, 0x00, 0x00,   0x00, 0x00, 0x00, 0x00, 0x00, 0x00, 0x00, 0x00, 0x51, 0x55, 0x55, 0x7d,   0x54, 0x55, 0x55, 0x1f, 0x55, 0x55, 0xd5, 0x47, 0x55, 0x55, 0xf5, 0x51,   0x55, 0x55, 0x7d, 0x54, 0x55, 0x55, 0x0f, 0x00, 0x00, 0x00, 0x00, 0x00,   0x00, 0x00, 0x00, 0x00, 0x00, 0x00, 0x00, 0x00, 0x00, 0x00, 0xad, 0xaa,   0xaa, 0x72, 0xab, 0xaa, 0xaa, 0xdc, 0xaa, 0xaa, 0x2a, 0xb7, 0xaa, 0xaa,   0xca, 0xad, 0xaa, 0xaa, 0x72, 0xab, 0xaa, 0xaa, 0x0c, 0x00, 0x00, 0x00,   0x00, 0x00, 0x00, 0x00, 0x00, 0x00, 0x00, 0x00, 0x00, 0x00, 0x00, 0x00,   0x51, 0xfd, 0x57, 0x7d, 0x54, 0xd5, 0x55, 0x1f, 0xf5, 0xff, 0xd5, 0x47,   0x5d, 0xff, 0xf5, 0x51, 0x5f, 0x5f, 0x7d, 0x54, 0x75, 0x75, 0x0f, 0x00,   0x00, 0x00, 0x00, 0x00, 0x00, 0x00, 0x00, 0x00, 0x00, 0x00, 0x00, 0x00,   0x00, 0x00, 0xad, 0xfe, 0xaf, 0x72, 0xab, 0xea, 0xab, 0xdc, 0xea, 0xff,   0x2b, 0xb7, 0xbe, 0xff, 0xcb, 0xad, 0xee, 0xff, 0x72, 0xab, 0xba, 0xba,   0x0c, 0x00, 0x00, 0x00, 0x00, 0x00, 0x00, 0x00, 0x00, 0x00, 0x00, 0x00,   0x00, 0x00, 0x00, 0x00, 0x51, 0x5f, 0x5f, 0x7d, 0x54, 0xf5, 0x55, 0x1f,   0xf5, 0xff, 0xd5, 0x47, 0xdf, 0xd7, 0xf7, 0x51, 0xdf, 0x75, 0x7d, 0x54,   0x7d, 0x7d, 0x0f, 0x00, 0x00, 0x00, 0x00, 0x00, 0x00, 0x00, 0x00, 0x00,   0x00, 0x00, 0x00, 0x00, 0x00, 0x00, 0xad, 0xae, 0xae, 0x72, 0xab, 0xfa,   0xab, 0xdc, 0xaa, 0xea, 0x2b, 0xb7, 0xbf, 0xab, 0xcb, 0xed, 0xef, 0xea,   0x72, 0xab, 0xbe, 0xbe, 0x0c, 0x00, 0x00, 0x00, 0x00, 0x00, 0x00, 0x00,   0x00, 0x00, 0x00, 0x00, 0x00, 0x00, 0x00, 0x00, 0x51, 0x5f, 0x5f, 0x7d,   0x54, 0xf5, 0x55, 0x1f, 0x55, 0xf5, 0xd5, 0xc7, 0xdf, 0xd7, 0xf7, 0xd1,   0xff, 0xf5, 0x7d, 0x54, 0x5f, 0x5f, 0x0f, 0x00, 0x00, 0x00, 0x00, 0x00,   0x00, 0x00, 0x00, 0x00, 0x00, 0x00, 0x00, 0x00, 0x00, 0x00, 0xad, 0xaf,   0xbe, 0x72, 0xab, 0xfa, 0xab, 0xdc, 0xaa, 0xfa, 0x2a, 0xb7, 0xfe, 0xab,   0xcf, 0xad, 0xee, 0xea, 0x72, 0xab, 0xaf, 0xaf, 0x0c, 0x00, 0x00, 0x00,   0x00, 0x00, 0x00, 0x00, 0x00, 0x00, 0x00, 0x00, 0x00, 0x00, 0x00, 0x00,   0x51, 0x57, 0x5d, 0x7d, 0x54, 0xdd, 0x55, 0x1f, 0x55, 0x75, 0xd5, 0x47,   0xdd, 0x55, 0xf7, 0x51, 0x5f, 0xf5, 0x7d, 0xd4, 0xd7, 0x57, 0x0f, 0x00,   0x00, 0x00, 0x00, 0x00, 0x00, 0x00, 0x00, 0x00, 0x00, 0x00, 0x00, 0x00,   0x00, 0x00, 0xad, 0xaf, 0xbe, 0x72, 0xab, 0xee, 0xab, 0xdc, 0xaa, 0xba,   0x2a, 0xb7, 0xfe, 0xab, 0xcf, 0xad, 0xae, 0xfa, 0x72, 0xeb, 0xeb, 0xab,   0x0c, 0x00, 0x00, 0x00, 0x00, 0x00, 0x00, 0x00, 0x00, 0x00, 0x00, 0x00,   0x00, 0x00, 0x00, 0x00, 0x51, 0x57, 0x5d, 0x7d, 0x54, 0xd7, 0x55, 0x1f,   0x55, 0x7d, 0xd5, 0x47, 0xdd, 0x55, 0xf7, 0x51, 0x5f, 0x7f, 0x7d, 0xf4,   0xf5, 0x55, 0x0f, 0x00, 0x00, 0x00, 0x00, 0x00, 0x00, 0x00, 0x00, 0x00,   0x00, 0x00, 0x00, 0x00, 0x00, 0x00, 0xad, 0xaf, 0xbe, 0x72, 0xab, 0xef,   0xab, 0xdc, 0xaa, 0xbe, 0x2a, 0xb7, 0xfe, 0xab, 0xcf, 0xad, 0xae, 0xbe,   0x72, 0xeb, 0xeb, 0xab, 0x0c, 0x00, 0x00, 0x00, 0x00, 0x00, 0x00, 0x00,   0x00, 0x00, 0x00, 0x00, 0x00, 0x00, 0x00, 0x00, 0x51, 0x57, 0x5d, 0x7d,   0x54, 0xd7, 0x55, 0x1f, 0x55, 0x5d, 0xd5, 0x47, 0xdd, 0x55, 0xf7, 0x51,   0x5f, 0xff, 0x7d, 0xd4, 0xd7, 0x57, 0x0f, 0x00, 0x00, 0x00, 0x00, 0x00,   0x00, 0x00, 0x00, 0x00, 0x00, 0x00, 0x00, 0x00, 0x00, 0x00, 0xad, 0xaf,   0xbe, 0x72, 0xab, 0xeb, 0xab, 0xdc, 0xaa, 0xae, 0x2a, 0xb7, 0xfe, 0xab,   0xcf, 0xad, 0xae, 0xea, 0x72, 0xab, 0xaf, 0xaf, 0x0c, 0x00, 0x00, 0x00,   0x00, 0x00, 0x00, 0x00, 0x00, 0x00, 0x00, 0x00, 0x00, 0x00, 0x00, 0x00,   0x51, 0x57, 0x5d, 0x7d, 0xd4, 0xff, 0x57, 0x1f, 0x55, 0x5f, 0xd5, 0x47,   0xdd, 0x55, 0xf7, 0x51, 0x5f, 0xd5, 0x7d, 0x54, 0x5f, 0x5f, 0x0f, 0x00,   0x00, 0x00, 0x00, 0x00, 0x00, 0x00, 0x00, 0x00, 0x00, 0x00, 0x00, 0x00,   0x00, 0x00, 0xad, 0xaf, 0xbe, 0x72, 0xab, 0xff, 0xaf, 0xdc, 0xaa, 0xaf,   0x2a, 0xb7, 0xfe, 0xab, 0xcf, 0xad, 0xae, 0xea, 0x73, 0xab, 0xbe, 0xbe,   0x0c, 0x00, 0x00, 0x00, 0x00, 0x00, 0x00, 0x00, 0x00, 0x00, 0x00, 0x00,   0x00, 0x00, 0x00, 0x00, 0x51, 0x5f, 0x5f, 0x7d, 0x54, 0xd5, 0x55, 0x1f,   0x55, 0x57, 0xd5, 0x47, 0xdd, 0xd7, 0xf7, 0x51, 0xff, 0xd5, 0x7d, 0x54,   0x7d, 0x7d, 0x0f, 0x00, 0x00, 0x00, 0x00, 0x00, 0x00, 0x00, 0x00, 0x00,   0x00, 0x00, 0x00, 0x00, 0x00, 0x00, 0xad, 0xae, 0xae, 0x72, 0xab, 0xea,   0xab, 0xdc, 0xaa, 0xaf, 0x2a, 0xb7, 0xbe, 0xab, 0xcb, 0xad, 0xee, 0xea,   0x73, 0xab, 0xba, 0xba, 0x0c, 0x00, 0x00, 0x00, 0x00, 0x00, 0x00, 0x00,   0x00, 0x00, 0x00, 0x00, 0x00, 0x00, 0x00, 0x00, 0x51, 0x5f, 0x5f, 0x7d,   0x54, 0xd5, 0x55, 0x1f, 0xd5, 0x57, 0xd5, 0x47, 0xdd, 0xd7, 0xf7, 0x51,   0xdf, 0xf5, 0x7d, 0x54, 0x75, 0x75, 0x0f, 0x00, 0x00, 0x00, 0x00, 0x00,   0x00, 0x00, 0x00, 0x00, 0x00, 0x00, 0x00, 0x00, 0x00, 0x00, 0xad, 0xfe,   0xaf, 0x72, 0xab, 0xea, 0xab, 0xdc, 0xaa, 0xab, 0x2a, 0xb7, 0xbe, 0xff,   0xcb, 0xad, 0xee, 0xff, 0x72, 0xab, 0xaa, 0xaa, 0x0c, 0x00, 0x00, 0x00,   0x00, 0x00, 0x00, 0x00, 0x00, 0x00, 0x00, 0x00, 0x00, 0x00, 0x00, 0x00,   0x51, 0xfd, 0x57, 0x7d, 0x54, 0xd5, 0x55, 0x1f, 0xd5, 0x57, 0xd5, 0x47,   0x5d, 0xff, 0xf5, 0x51, 0x5f, 0x7f, 0x7d, 0x54, 0x55, 0x55, 0x0f, 0x00,   0x00, 0x00, 0x00, 0x00, 0x00, 0x00, 0x00, 0x00, 0x00, 0x00, 0x00, 0x00,   0x00, 0x00, 0xad, 0xaa, 0xaa, 0x72, 0xab, 0xaa, 0xaa, 0xdc, 0xaa, 0xaa,   0x2a, 0xb7, 0xaa, 0xaa, 0xca, 0xad, 0xaa, 0xaa, 0x72, 0xab, 0xaa, 0xaa,   0x0c, 0x00, 0x00, 0x00, 0x00, 0x00, 0x00, 0x00, 0x00, 0x00, 0x00, 0x00,   0x00, 0x00, 0x00, 0x00, 0x51, 0x55, 0x55, 0x7d, 0x54, 0x55, 0x55, 0x1f,   0x55, 0x55, 0xd5, 0x47, 0x55, 0x55, 0xf5, 0x51, 0x55, 0x55, 0x7d, 0x54,   0x55, 0x55, 0x0f, 0x00, 0x00, 0x00, 0x00, 0x00, 0x00, 0x00, 0x00, 0x00,   0x00, 0x00, 0x00, 0x00, 0x00, 0x00, 0xad, 0xaa, 0xaa, 0x7a, 0xab, 0xaa,   0xaa, 0xde, 0xaa, 0xaa, 0xaa, 0xb7, 0xaa, 0xaa, 0xea, 0xad, 0xaa, 0xaa,   0x7a, 0xab, 0xaa, 0xaa, 0x0e, 0x00, 0x00, 0x00, 0x00, 0x00, 0x00, 0x00,   0x00, 0x00, 0x00, 0x00, 0x00, 0x00, 0x00, 0x00, 0xff, 0xff, 0xff, 0xff,   0xff, 0xff, 0xff, 0xff, 0xff, 0xff, 0xff, 0xff, 0xff, 0xff, 0xff, 0xff,   0xff, 0xff, 0xff, 0xff, 0xff, 0xff, 0x0f, 0x00, 0x00, 0x00, 0x00, 0x00,   0x00, 0x00, 0x00, 0x00, 0x00, 0x00, 0x00, 0x00, 0x00, 0x00, 0xff, 0xff,   0xff, 0xff, 0xff, 0xff, 0xff, 0xff, 0xff, 0xff, 0xff, 0xff, 0xff, 0xff,   0xff, 0xff, 0xff, 0xff, 0xff, 0xff, 0xff, 0xff, 0x0f, 0x00, 0x00, 0x00,   0x00, 0x00, 0x00, 0x00, 0x00, 0x00, 0x00, 0x00, 0x00, 0x00, 0x00, 0x00,   0xff, 0xff, 0xff, 0xff, 0xff, 0xff, 0xff, 0xff, 0xff, 0xff, 0xff, 0xff,   0xff, 0xff, 0xff, 0xff, 0xff, 0xff, 0xff, 0xff, 0xff, 0xff, 0x0f, 0x00,   0x00, 0x00, 0x00, 0x00, 0x00, 0x00, 0x00, 0x00, 0x00, 0x00, 0x00, 0x00,   0x00, 0x00, 0xff, 0xff, 0xff, 0xff, 0xff, 0xff, 0xff, 0xff, 0xff, 0xff,   0xff, 0xff, 0xff, 0xff, 0xff, 0xff, 0xff, 0xff, 0xff, 0xff, 0xff, 0xff,   0x0f, 0x00, 0x00, 0x00, 0x00, 0x00, 0x00, 0x00, 0x00, 0x00, 0x00, 0x00,   0x00, 0x00, 0x00, 0x00, 0xaf, 0xaa, 0xaa, 0xea, 0xab, 0xaa, 0xaa, 0xfa,   0xaa, 0xaa, 0xaa, 0xbe, 0xaa, 0xaa, 0xaa, 0xaf, 0xaa, 0xaa, 0xea, 0xab,   0xaa, 0xaa, 0x0a, 0x00, 0x00, 0x00, 0x00, 0x00, 0x00, 0x00, 0x00, 0x00,   0x00, 0x00, 0x00, 0x00, 0x00, 0x00, 0x53, 0x55, 0x55, 0xed, 0x54, 0x55,   0x55, 0x3b, 0x55, 0x55, 0xd5, 0x4e, 0x55, 0x55, 0xb5, 0x53, 0x55, 0x55,   0xed, 0x54, 0x55, 0x55, 0x0b, 0x00, 0x00, 0x00, 0x00, 0x00, 0x00, 0x00,   0x00, 0x00, 0x00, 0x00, 0x00, 0x00, 0x00, 0x00, 0xaf, 0xaa, 0xaa, 0xe2,   0xab, 0xaa, 0xaa, 0xf8, 0xaa, 0xaa, 0x2a, 0xbe, 0xaa, 0xaa, 0x8a, 0xaf,   0xaa, 0xaa, 0xe2, 0xab, 0xaa, 0xaa, 0x08, 0x00, 0x00, 0x00, 0x00, 0x00,   0x00, 0x00, 0x00, 0x00, 0x00, 0x00, 0x00, 0x00, 0x00, 0x00, 0x53, 0x55,   0x55, 0xed, 0x54, 0x55, 0x55, 0x3b, 0x55, 0x55, 0xd5, 0x4e, 0x55, 0x55,   0xb5, 0x53, 0x55, 0x55, 0xed, 0x54, 0x55, 0x55, 0x0b, 0x00, 0x00, 0x00,   0x00, 0x00, 0x00, 0x00, 0x00, 0x00, 0x00, 0x00, 0x00, 0x00, 0x00, 0x00,   0xaf, 0x02, 0xa8, 0xe2, 0xab, 0x2a, 0xaa, 0xf8, 0x0a, 0x00, 0x2a, 0xbe,   0xa2, 0x00, 0x8a, 0xaf, 0xa2, 0xa0, 0xe2, 0xab, 0x8a, 0x8a, 0x08, 0x00,   0x00, 0x00, 0x00, 0x00, 0x00, 0x00, 0x00, 0x00, 0x00, 0x00, 0x00, 0x00,   0x00, 0x00, 0x53, 0x01, 0x50, 0xed, 0x54, 0x15, 0x54, 0x3b, 0x15, 0x00,   0xd4, 0x4e, 0x41, 0x00, 0xb4, 0x53, 0x11, 0x00, 0xed, 0x54, 0x45, 0x45,   0x0b, 0x00, 0x00, 0x00, 0x00, 0x00, 0x00, 0x00, 0x00, 0x00, 0x00, 0x00,   0x00, 0x00, 0x00, 0x00, 0xaf, 0xa0, 0xa0, 0xe2, 0xab, 0x0a, 0xaa, 0xf8,   0x0a, 0x00, 0x2a, 0xbe, 0x20, 0x28, 0x88, 0xaf, 0x20, 0x8a, 0xe2, 0xab,   0x82, 0x82, 0x08, 0x00, 0x00, 0x00, 0x00, 0x00, 0x00, 0x00, 0x00, 0x00,   0x00, 0x00, 0x00, 0x00, 0x00, 0x00, 0x53, 0x51, 0x51, 0xed, 0x54, 0x05,   0x54, 0x3b, 0x55, 0x15, 0xd4, 0x4e, 0x40, 0x54, 0xb4, 0x53, 0x00, 0x04,   0xed, 0x54, 0x41, 0x41, 0x0b, 0x00, 0x00, 0x00, 0x00, 0x00, 0x00, 0x00,   0x00, 0x00, 0x00, 0x00, 0x00, 0x00, 0x00, 0x00, 0xaf, 0xa0, 0xa0, 0xe2,   0xab, 0x0a, 0xaa, 0xf8, 0xaa, 0x0a, 0x2a, 0x3e, 0x20, 0x28, 0x88, 0x2f,   0x00, 0x0a, 0xe2, 0xab, 0xa0, 0xa0, 0x08, 0x00, 0x00, 0x00, 0x00, 0x00,   0x00, 0x00, 0x00, 0x00, 0x00, 0x00, 0x00, 0x00, 0x00, 0x00, 0x53, 0x50,   0x41, 0xed, 0x54, 0x05, 0x54, 0x3b, 0x55, 0x05, 0xd5, 0x4e, 0x01, 0x54,   0xb0, 0x53, 0x11, 0x15, 0xed, 0x54, 0x50, 0x50, 0x0b, 0x00, 0x00, 0x00,   0x00, 0x00, 0x00, 0x00, 0x00, 0x00, 0x00, 0x00, 0x00, 0x00, 0x00, 0x00,   0xaf, 0xa8, 0xa2, 0xe2, 0xab, 0x22, 0xaa, 0xf8, 0xaa, 0x8a, 0x2a, 0xbe,   0x22, 0xaa, 0x88, 0xaf, 0xa0, 0x0a, 0xe2, 0x2b, 0x28, 0xa8, 0x08, 0x00,   0x00, 0x00, 0x00, 0x00, 0x00, 0x00, 0x00, 0x00, 0x00, 0x00, 0x00, 0x00,   0x00, 0x00, 0x53, 0x50, 0x41, 0xed, 0x54, 0x11, 0x54, 0x3b, 0x55, 0x45,   0xd5, 0x4e, 0x01, 0x54, 0xb0, 0x53, 0x51, 0x05, 0xed, 0x14, 0x14, 0x54,   0x0b, 0x00, 0x00, 0x00, 0x00, 0x00, 0x00, 0x00, 0x00, 0x00, 0x00, 0x00,   0x00, 0x00, 0x00, 0x00, 0xaf, 0xa8, 0xa2, 0xe2, 0xab, 0x28, 0xaa, 0xf8,   0xaa, 0x82, 0x2a, 0xbe, 0x22, 0xaa, 0x88, 0xaf, 0xa0, 0x80, 0xe2, 0x0b,   0x0a, 0xaa, 0x08, 0x00, 0x00, 0x00, 0x00, 0x00, 0x00, 0x00, 0x00, 0x00,   0x00, 0x00, 0x00, 0x00, 0x00, 0x00, 0x53, 0x50, 0x41, 0xed, 0x54, 0x10,   0x54, 0x3b, 0x55, 0x41, 0xd5, 0x4e, 0x01, 0x54, 0xb0, 0x53, 0x51, 0x41,   0xed, 0x14, 0x14, 0x54, 0x0b, 0x00, 0x00, 0x00, 0x00, 0x00, 0x00, 0x00,   0x00, 0x00, 0x00, 0x00, 0x00, 0x00, 0x00, 0x00, 0xaf, 0xa8, 0xa2, 0xe2,   0xab, 0x28, 0xaa, 0xf8, 0xaa, 0xa2, 0x2a, 0xbe, 0x22, 0xaa, 0x88, 0xaf,   0xa0, 0x00, 0xe2, 0x2b, 0x28, 0xa8, 0x08, 0x00, 0x00, 0x00, 0x00, 0x00,   0x00, 0x00, 0x00, 0x00, 0x00, 0x00, 0x00, 0x00, 0x00, 0x00, 0x53, 0x50,   0x41, 0xed, 0x54, 0x14, 0x54, 0x3b, 0x55, 0x51, 0xd5, 0x4e, 0x01, 0x54,   0xb0, 0x53, 0x51, 0x15, 0xed, 0x54, 0x50, 0x50, 0x0b, 0x00, 0x00, 0x00,   0x00, 0x00, 0x00, 0x00, 0x00, 0x00, 0x00, 0x00, 0x00, 0x00, 0x00, 0x00,   0xaf, 0xa8, 0xa2, 0xe2, 0x2b, 0x00, 0xa8, 0xf8, 0xaa, 0xa0, 0x2a, 0xbe,   0x22, 0xaa, 0x88, 0xaf, 0xa0, 0x2a, 0xe2, 0xab, 0xa0, 0xa0, 0x08, 0x00,   0x00, 0x00, 0x00, 0x00, 0x00, 0x00, 0x00, 0x00, 0x00, 0x00, 0x00, 0x00,   0x00, 0x00, 0x53, 0x50, 0x41, 0xed, 0x54, 0x00, 0x50, 0x3b, 0x55, 0x50,   0xd5, 0x4e, 0x01, 0x54, 0xb0, 0x53, 0x51, 0x15, 0xec, 0x54, 0x41, 0x41,   0x0b, 0x00, 0x00, 0x00, 0x00, 0x00, 0x00, 0x00, 0x00, 0x00, 0x00, 0x00,   0x00, 0x00, 0x00, 0x00, 0xaf, 0xa0, 0xa0, 0xe2, 0xab, 0x2a, 0xaa, 0xf8,   0xaa, 0xa8, 0x2a, 0xbe, 0x22, 0x28, 0x88, 0xaf, 0x00, 0x2a, 0xe2, 0xab,   0x82, 0x82, 0x08, 0x00, 0x00, 0x00, 0x00, 0x00, 0x00, 0x00, 0x00, 0x00,   0x00, 0x00, 0x00, 0x00, 0x00, 0x00, 0x53, 0x51, 0x51, 0xed, 0x54, 0x15,   0x54, 0x3b, 0x55, 0x50, 0xd5, 0x4e, 0x41, 0x54, 0xb4, 0x53, 0x11, 0x15,   0xec, 0x54, 0x45, 0x45, 0x0b, 0x00, 0x00, 0x00, 0x00, 0x00, 0x00, 0x00,   0x00, 0x00, 0x00, 0x00, 0x00, 0x00, 0x00, 0x00, 0xaf, 0xa0, 0xa0, 0xe2,   0xab, 0x2a, 0xaa, 0xf8, 0x2a, 0xa8, 0x2a, 0xbe, 0x22, 0x28, 0x88, 0xaf,   0x20, 0x0a, 0xe2, 0xab, 0x8a, 0x8a, 0x08, 0x00, 0x00, 0x00, 0x00, 0x00,   0x00, 0x00, 0x00, 0x00, 0x00, 0x00, 0x00, 0x00, 0x00, 0x00, 0x53, 0x01,   0x50, 0xed, 0x54, 0x15, 0x54, 0x3b, 0x55, 0x54, 0xd5, 0x4e, 0x41, 0x00,   0xb4, 0x53, 0x11, 0x00, 0xed, 0x54, 0x55, 0x55, 0x0b, 0x00, 0x00, 0x00,   0x00, 0x00, 0x00, 0x00, 0x00, 0x00, 0x00, 0x00, 0x00, 0x00, 0x00, 0x00,   0xaf, 0x02, 0xa8, 0xe2, 0xab, 0x2a, 0xaa, 0xf8, 0x2a, 0xa8, 0x2a, 0xbe,   0xa2, 0x00, 0x8a, 0xaf, 0xa0, 0x80, 0xe2, 0xab, 0xaa, 0xaa, 0x08, 0x00,   0x00, 0x00, 0x00, 0x00, 0x00, 0x00, 0x00, 0x00, 0x00, 0x00, 0x00, 0x00,   0x00, 0x00, 0x53, 0x55, 0x55, 0xed, 0x54, 0x55, 0x55, 0x3b, 0x55, 0x55,   0xd5, 0x4e, 0x55, 0x55, 0xb5, 0x53, 0x55, 0x55, 0xed, 0x54, 0x55, 0x55,   0x0b, 0x00, 0x00, 0x00, 0x00, 0x00, 0x00, 0x00, 0x00, 0x00, 0x00, 0x00,   0x00, 0x00, 0x00, 0x00, 0xaf, 0xaa, 0xaa, 0xe2, 0xab, 0xaa, 0xaa, 0xf8,   0xaa, 0xaa, 0x2a, 0xbe, 0xaa, 0xaa, 0x8a, 0xaf, 0xaa, 0xaa, 0xe2, 0xab,   0xaa, 0xaa, 0x08, 0x00, 0x00, 0x00, 0x00, 0x00, 0x00, 0x00, 0x00, 0x00,   0x00, 0x00, 0x00, 0x00, 0x00, 0x00, 0x53, 0x55, 0x55, 0xe5, 0x54, 0x55,   0x55, 0x39, 0x55, 0x55, 0x55, 0x4e, 0x55, 0x55, 0x95, 0x53, 0x55, 0x55,   0xe5, 0x54, 0x55, 0x55, 0x09, 0x00, 0x00, 0x00, 0x00, 0x00, 0x00, 0x00,   0x00, 0x00, 0x00, 0x00, 0x00, 0x00, 0x00, 0x00, 0x01, 0x00, 0x00, 0x60,   0x00, 0x00, 0x00, 0x18, 0x00, 0x00, 0x00, 0x06, 0x00, 0x00, 0x80, 0x01,   0x00, 0x00, 0x60, 0x00, 0x00, 0x00, 0x08, 0x00, 0x00, 0x00, 0x00, 0x00,   0x00, 0x00, 0x00, 0x00, 0x00, 0x00, 0x00, 0x00, 0x00, 0x00, 0xff, 0xff,   0xff, 0xff, 0xff, 0xff, 0xff, 0xff, 0xff, 0xff, 0xff, 0xff, 0xff, 0xff,   0x7f, 0xff, 0xff, 0xff, 0xff, 0xff, 0xff, 0xff, 0x0f, 0x00, 0x00, 0x00,   0x00, 0x00, 0x00, 0x00, 0x00, 0x00, 0x00, 0x00, 0x00, 0x00, 0x00, 0x00};