#define lunit_width 19
#define lunit_height 19
#define lunit_x_hot 0
#define lunit_y_hot 0
static char lunit_bits[] = {
   0xff, 0xff, 0x07, 0x01, 0x00, 0x04, 0xfd, 0xff, 0x05, 0x05, 0x00, 0x05,
   0x75, 0x78, 0x05, 0x95, 0x47, 0x05, 0x15, 0x41, 0x05, 0x15, 0x41, 0x05,
   0x15, 0x41, 0x05, 0x15, 0x41, 0x05, 0x15, 0x41, 0x05, 0x15, 0x41, 0x05,
   0x15, 0x31, 0x05, 0x75, 0x0d, 0x05, 0x85, 0x03, 0x05, 0x05, 0x00, 0x05,
   0xfd, 0xff, 0x05, 0x01, 0x00, 0x04, 0xff, 0xff, 0x07};
