#define punit_width 19
#define punit_height 19
#define punit_x_hot 0
#define punit_y_hot 0
static char punit_bits[] = {
   0xff, 0xff, 0x07, 0x01, 0x00, 0x04, 0xfd, 0xff, 0x05, 0x05, 0x30, 0x05,
   0x05, 0x90, 0x05, 0x05, 0xde, 0x05, 0x05, 0x7f, 0x05, 0x85, 0x3f, 0x05,
   0xc5, 0x3d, 0x05, 0xc5, 0x3e, 0x05, 0x65, 0x1f, 0x05, 0xe5, 0x1f, 0x05,
   0xf5, 0x0f, 0x05, 0xf5, 0x07, 0x05, 0xf5, 0x01, 0x05, 0x05, 0x00, 0x05,
   0xfd, 0xff, 0x05, 0x01, 0x00, 0x04, 0xff, 0xff, 0x07};
