#define sunit_width 19#define sunit_height 19#define sunit_x_hot 0#define sunit_y_hot 0static char sunit_bits[] = {   0xff, 0xff, 0x07, 0x01, 0x00, 0x04, 0xfd, 0xff, 0x05, 0x05, 0x3c, 0x05,   0x05, 0x7e, 0x05, 0x05, 0xe6, 0x05, 0x05, 0xc6, 0x05, 0x05, 0xce, 0x05,   0x05, 0xfe, 0x05, 0x05, 0x7f, 0x05, 0x85, 0x03, 0x05, 0xc5, 0x01, 0x05,   0xe5, 0x00, 0x05, 0xf5, 0x00, 0x05, 0xc5, 0x01, 0x05, 0x45, 0x00, 0x05,   0xfd, 0xff, 0x05, 0x01, 0x00, 0x04, 0xff, 0xff, 0x07};