#define ticonify_width 17
#define ticonify_height 17
#define ticonify_x_hot 0
#define ticonify_y_hot 0
static char ticonify_bits[] = {
   0xff, 0xff, 0x01, 0x01, 0x00, 0x01, 0x89, 0x07, 0x01, 0x1d, 0x1f, 0x01,
   0x89, 0x38, 0x01, 0xc1, 0x71, 0x01, 0xe1, 0x60, 0x01, 0xf1, 0x61, 0x01,
   0xb1, 0x63, 0x01, 0x01, 0x67, 0x01, 0x11, 0x7e, 0x01, 0x39, 0x3c, 0x01,
   0x7d, 0x3c, 0x01, 0xfd, 0x3f, 0x01, 0xcd, 0x77, 0x01, 0x01, 0x00, 0x01,
   0xff, 0xff, 0x01};
