#define tunit_width 19#define tunit_height 19#define tunit_x_hot 0#define tunit_y_hot 0static char tunit_bits[] = {   0xff, 0xff, 0x07, 0x01, 0x00, 0x04, 0xfd, 0xff, 0x05, 0x05, 0x00, 0x05,   0xe5, 0x3f, 0x05, 0x25, 0x20, 0x05, 0x25, 0x20, 0x05, 0x25, 0x20, 0x05,   0x25, 0x20, 0x05, 0xe5, 0x3f, 0x05, 0x25, 0x00, 0x05, 0x15, 0x00, 0x05,   0xf5, 0x7f, 0x05, 0x15, 0x40, 0x05, 0xf5, 0x7f, 0x05, 0x05, 0x00, 0x05,   0xfd, 0xff, 0x05, 0x01, 0x00, 0x04, 0xff, 0xff, 0x07};