#define up_width 18#define up_height 18#define up_x_hot 0#define up_y_hot 0static char up_bits[] = {   0x00, 0x0e, 0x00, 0x00, 0x12, 0x00, 0x00, 0x12, 0x00, 0x00, 0x12, 0x00,   0x00, 0x12, 0x00, 0x00, 0x13, 0x00, 0x00, 0x71, 0x00, 0x00, 0x81, 0x01,   0x9f, 0xf8, 0x03, 0xf1, 0x08, 0x02, 0x11, 0xf8, 0x03, 0x11, 0x08, 0x02,   0x11, 0xf8, 0x03, 0x11, 0x08, 0x02, 0x11, 0xf8, 0x03, 0x11, 0x10, 0x02,   0xf1, 0xf0, 0x01, 0x1f, 0xff, 0x01};